<svg width="30" height="30" viewBox="0 0 30 30" fill="none" xmlns="http://www.w3.org/2000/svg">
<path d="M21.0467 17.5688C20.9492 17.4042 20.675 17.1482 19.9923 17.2701C19.6145 17.3372 19.2305 17.3676 18.8465 17.3494C17.4264 17.2884 16.1404 16.6363 15.2445 15.6306C14.4522 14.7469 13.9646 13.595 13.9585 12.3516C13.9585 11.6568 14.0926 10.9864 14.3668 10.3525C14.635 9.73696 14.4461 9.41394 14.312 9.27985C14.1718 9.13967 13.8427 8.94464 13.1966 9.21281C10.7039 10.2611 9.16189 12.76 9.34473 15.4356C9.52758 17.9527 11.2951 20.1042 13.6355 20.9148C14.1962 21.1098 14.7874 21.2256 15.3969 21.25C15.4944 21.2561 15.5919 21.2622 15.6894 21.2622C17.7312 21.2622 19.6449 20.2992 20.8517 18.6597C21.2601 18.0929 21.1503 17.7333 21.0467 17.5688Z" fill="#CDCDCD"/>
</svg>
