<svg width="31" height="30" viewBox="0 0 31 30" fill="none" xmlns="http://www.w3.org/2000/svg">
<path d="M15.4841 19.439C17.8404 19.439 19.7505 17.5288 19.7505 15.1726C19.7505 12.8164 17.8404 10.9062 15.4841 10.9062C13.1279 10.9062 11.2178 12.8164 11.2178 15.1726C11.2178 17.5288 13.1279 19.439 15.4841 19.439Z" fill="#F3F3F3"/>
<path d="M15.4836 21.8529C15.1484 21.8529 14.8741 21.603 14.8741 21.2678V21.2191C14.8741 20.8838 15.1484 20.6096 15.4836 20.6096C15.8188 20.6096 16.093 20.8838 16.093 21.2191C16.093 21.5543 15.8188 21.8529 15.4836 21.8529ZM19.8353 20.1342C19.6768 20.1342 19.5244 20.0732 19.4025 19.9574L19.3233 19.8782C19.0856 19.6405 19.0856 19.2565 19.3233 19.0188C19.561 18.7811 19.945 18.7811 20.1827 19.0188L20.2619 19.0981C20.4996 19.3358 20.4996 19.7197 20.2619 19.9574C20.1461 20.0732 19.9937 20.1342 19.8353 20.1342ZM11.1319 20.1342C10.9734 20.1342 10.8211 20.0732 10.6992 19.9574C10.4615 19.7197 10.4615 19.3358 10.6992 19.0981L10.7784 19.0188C11.0161 18.7811 11.4001 18.7811 11.6378 19.0188C11.8755 19.2565 11.8755 19.6405 11.6378 19.8782L11.5585 19.9574C11.4427 20.0732 11.2843 20.1342 11.1319 20.1342ZM21.5784 15.7825H21.5296C21.1944 15.7825 20.9201 15.5082 20.9201 15.173C20.9201 14.8378 21.1944 14.5635 21.5296 14.5635C21.8648 14.5635 22.1635 14.8378 22.1635 15.173C22.1635 15.5082 21.9136 15.7825 21.5784 15.7825ZM9.43753 15.7825H9.38878C9.05356 15.7825 8.7793 15.5082 8.7793 15.173C8.7793 14.8378 9.05356 14.5635 9.38878 14.5635C9.72399 14.5635 10.0226 14.8378 10.0226 15.173C10.0226 15.5082 9.77275 15.7825 9.43753 15.7825ZM19.756 11.5101C19.5976 11.5101 19.4452 11.4491 19.3233 11.3333C19.0856 11.0956 19.0856 10.7116 19.3233 10.4739L19.4025 10.3947C19.6402 10.157 20.0242 10.157 20.2619 10.3947C20.4996 10.6324 20.4996 11.0164 20.2619 11.2541L20.1827 11.3333C20.0669 11.4491 19.9145 11.5101 19.756 11.5101ZM11.2111 11.5101C11.0527 11.5101 10.9003 11.4491 10.7784 11.3333L10.6992 11.248C10.4615 11.0103 10.4615 10.6263 10.6992 10.3886C10.9369 10.1509 11.3208 10.1509 11.5585 10.3886L11.6378 10.4678C11.8755 10.7055 11.8755 11.0895 11.6378 11.3272C11.522 11.4491 11.3635 11.5101 11.2111 11.5101ZM15.4836 9.71209C15.1484 9.71209 14.8741 9.4622 14.8741 9.12699V9.07823C14.8741 8.74302 15.1484 8.46875 15.4836 8.46875C15.8188 8.46875 16.093 8.74302 16.093 9.07823C16.093 9.41344 15.8188 9.71209 15.4836 9.71209Z" fill="#F3F3F3"/>
</svg>
